<svg width="1200" height="360" viewBox="0 0 1200 360" fill="none" xmlns="http://www.w3.org/2000/svg">
  <defs>
    <linearGradient id="bg" x1="0" y1="0" x2="1200" y2="360" gradientUnits="userSpaceOnUse">
      <stop stop-color="#07111F"/>
      <stop offset="0.55" stop-color="#102A43"/>
      <stop offset="1" stop-color="#173B52"/>
    </linearGradient>
    <linearGradient id="accent" x1="340" y1="50" x2="860" y2="320" gradientUnits="userSpaceOnUse">
      <stop stop-color="#F97316"/>
      <stop offset="1" stop-color="#22C55E"/>
    </linearGradient>
    <filter id="blur" x="-50" y="-50" width="1300" height="460" filterUnits="userSpaceOnUse" color-interpolation-filters="sRGB">
      <feGaussianBlur stdDeviation="18"/>
    </filter>
  </defs>

  <rect width="1200" height="360" rx="32" fill="url(#bg)"/>
  <circle cx="1040" cy="70" r="120" fill="#F97316" fill-opacity="0.14" filter="url(#blur)"/>
  <circle cx="220" cy="290" r="140" fill="#22C55E" fill-opacity="0.12" filter="url(#blur)"/>
  <path d="M760 40C910 40 1020 150 1020 300V320H650C585 320 532 267 532 202V40H760Z" fill="#FFFFFF" fill-opacity="0.04"/>
  <path d="M74 88H244" stroke="url(#accent)" stroke-width="10" stroke-linecap="round"/>
  <path d="M74 122H178" stroke="#FFFFFF" stroke-opacity="0.18" stroke-width="6" stroke-linecap="round"/>

  <text x="74" y="182" fill="#F8FAFC" font-family="Inter, Segoe UI, Arial, sans-serif" font-size="56" font-weight="800" letter-spacing="-1.5">
    Martim Aquino
  </text>
  <text x="74" y="232" fill="#CBD5E1" font-family="Inter, Segoe UI, Arial, sans-serif" font-size="24" font-weight="500">
    Cloud, IaC, n8n, backend e automação de processos
  </text>
  <text x="74" y="274" fill="#E2E8F0" fill-opacity="0.82" font-family="Inter, Segoe UI, Arial, sans-serif" font-size="18" font-weight="400">
    Projetos, estudos e evolução contínua em um espaço limpo e direto.
  </text>

  <g transform="translate(74 304)">
    <rect width="126" height="34" rx="17" fill="#0F172A" fill-opacity="0.72" stroke="#FFFFFF" stroke-opacity="0.10"/>
    <text x="63" y="22" text-anchor="middle" fill="#F8FAFC" font-family="Inter, Segoe UI, Arial, sans-serif" font-size="14" font-weight="600">GitHub</text>
    <rect x="138" width="144" height="34" rx="17" fill="#0F172A" fill-opacity="0.72" stroke="#FFFFFF" stroke-opacity="0.10"/>
    <text x="210" y="22" text-anchor="middle" fill="#F8FAFC" font-family="Inter, Segoe UI, Arial, sans-serif" font-size="14" font-weight="600">Portfólio</text>
    <rect x="292" width="132" height="34" rx="17" fill="#0F172A" fill-opacity="0.72" stroke="#FFFFFF" stroke-opacity="0.10"/>
    <text x="358" y="22" text-anchor="middle" fill="#F8FAFC" font-family="Inter, Segoe UI, Arial, sans-serif" font-size="14" font-weight="600">LinkedIn</text>
  </g>
</svg>